<?xml version="1.0" encoding="utf-8"?>
<!-- Generator: Adobe Illustrator 26.0.3, SVG Export Plug-In . SVG Version: 6.00 Build 0)  -->
<svg version="1.0" id="katman_1" xmlns="http://www.w3.org/2000/svg" xmlns:xlink="http://www.w3.org/1999/xlink" x="0px" y="0px"
	 viewBox="0 0 800 600" style="enable-background:new 0 0 800 600;" xml:space="preserve">
<path d="M403.5,125.8c-22.7,0.1-45.3,2.9-67.3,8.2c-10.8,2.7-21.5,6.3-31.9,10.4l-0.6,0.3c0,0,1.3,77.5,2.2,115.9
	c0.3,11.3,2.4,22.4,6.2,33.2c4.4,12.1,10.2,23.6,17.3,34.3c10.5,15.5,24,28.7,39.7,38.8c7,4.2,14.3,7.9,21.8,11
	c2.5,1.1,4.7,2.1,6.6,2.7c2.1,0.9,4.2,1.5,6.3,2c2.2-0.5,4.3-1.2,6.3-1.9c2.1-0.7,4.2-1.7,6.7-2.7c12.6-4.8,24.3-11.7,34.6-20.4
	c10.4-8.5,19.4-18.5,26.9-29.6c7.2-10.8,13-22.2,17.3-34.3c3.9-10.8,5.9-21.9,6.2-33.2c0.9-38.5,2.2-115.9,2.2-115.9l-0.7-0.4
	c-24.6-9.9-50.7-15.9-77.2-17.7c-7.5-0.6-14.3-0.9-21.9-0.9H403.5L403.5,125.8z M403.5,129.7h0.6c21.8,0.2,43.5,2.9,64.7,8.1
	c10.4,2.7,20.6,5.9,30.7,10l0.6,0.3l-0.4,24.3h-0.3c-23.7-9.6-48.7-15.5-74.2-17.3c-7-0.7-14-1-21-1.2h-0.6
	c-21.8,0.2-43.5,3-64.7,8.2c-10.5,2.7-20.8,6.1-30.8,10.2l-0.4-24.5l0.6-0.2c23.7-9.6,48.9-15.4,74.4-17.2
	C389.5,129.9,396.5,129.6,403.5,129.7L403.5,129.7z M549.9,132.1c-12.9,0-23.4,10.5-23.4,23.4S537,179,549.9,179
	c12.9,0,23.4-10.5,23.4-23.4S562.9,132.1,549.9,132.1C549.9,132.1,549.9,132.1,549.9,132.1z M396.2,133.4c-0.5,0.1-1,0.3-1.4,0.6
	c-0.4,0.2-0.6,0.6-0.7,1v3.8l-0.1,3.6c0,0.4,0.4,0.9,0.7,1.1c0.4,0.4,0.9,0.4,1.5,0.5h4.8l5,0.1l5,0.3c0.4,0,0.6,0.2,0.7,0.5v2
	c0,0.4,0,0.7-0.2,1.1c-0.1,0.3-0.4,0.4-1,0.4h-4.4l-2.4-0.1h-6.3l-3.7,0.2l-0.2,3.2l5.2-0.2l4-0.1h3.2l2.9,0.1l2,0.1h2.2
	c0.5,0,1.1-0.2,1.5-0.5c0.4-0.3,0.6-0.7,0.7-1.2v-3.6l0.1-3.6c-0.1-0.4-0.3-0.8-0.6-1.1c-0.3-0.3-0.7-0.4-1.2-0.5l-4.6-0.2h-11.1
	l-0.3-0.2c-0.2-0.2-0.3-0.4-0.3-0.6v-1.3c0-0.5,0-1.1,0.2-1.6c0.1-0.2,0.4-0.4,0.9-0.4l11.2,0.1h1.6l3.9,0.1v-3.2l-5.2-0.2
	L396.2,133.4L396.2,133.4z M385.5,133.9c-1.9,0-19.2,1.8-19.2,1.8v18.4l2-0.2l1.9-0.3v-5.7l10.8-1.2c1.4,0,2.7,0.7,3.3,2
	c0.5,1.1,0.9,2.3,1.3,3.6l4.2-0.4c-0.1-1.2-0.4-2.3-0.9-3.3c-0.6-1.3-1.6-2.5-2.7-3.5c1-0.6,1.7-1.6,2-2.7c0.1-2.2,0-4.3-0.2-6.4
	C387.9,135,387.4,134,385.5,133.9z M424.3,134.1c-0.9,0-1.9,0.3-2.6,0.9c-0.7,0.5-1.2,1.3-1.3,2.2V150l0.1,0.9
	c0.1,0.4,0.3,0.6,0.5,0.8c0.3,0.4,0.7,0.6,1.3,0.7h0.8l0.2,0.1h0.2l8.4,0.9l8.7,0.9l1.3,0.3v-3.4l-1.5-0.3l-1.2-0.1H439l-7.2-0.9
	l-7.2-0.9c-0.1,0-0.3,0-0.4-0.2l-0.1-0.4v-9.8c0-0.4,0-0.7,0.4-0.9c0.3-0.2,0.6-0.3,0.9-0.4c1.6,0.1,15,1.9,17,2.2v-3.6l-11.6-1.3
	L424.3,134.1L424.3,134.1z M549.8,135.5c7.6,0,15,4.3,18.3,11.7l0.2,0.4c2,5,2,10.6,0,15.6c-2,4.8-5.7,8.5-10.5,10.5
	c-5,2.1-10.6,2.1-15.6,0c-4.8-1.9-8.6-5.7-10.5-10.5c-2-5-2-10.6,0-15.6c1.9-4.8,5.7-8.5,10.5-10.5
	C544.7,136.2,547.3,135.6,549.8,135.5z M445.8,137v0.8c0,1.1,0,2.6-0.2,4.3c0,2.3-0.1,4.6-0.2,6.9l-0.1,1.5v2.2l-0.1,2.2l0.9,0.2
	l0.5,0.2l0.9,0.1l1.4,0.2l0.1-1.3v-1.1l0.1-1.3v-3.6c0.2,0,0.5,0,0.7,0.1h0.3l4.3,0.9l6.6,1.3l0.5,0.2l0.7,0.2l0.8,0.2v3.6l-0.1,1.2
	v1.4l-0.1,0.7l1.2,0.3l0.7,0.2l0.7,0.2l1,0.3v-1.8c0.2-2.2,0.2-4.5,0.3-7.2v-8.8l-1.4-0.4l-1.9-0.4v2.8l-0.2,1.8v3h-0.1l-0.9-0.2
	l-0.7-0.2l-0.5-0.1l-0.5-0.2l-4.2-0.9l-4.3-0.8h-0.4l-1.1-0.3l-1.1-0.2h-0.3v-7.7l-0.9-0.2h-0.6l-0.7-0.2L445.8,137L445.8,137z
	 M358.8,137.2l-17,3.3c-1.3,0.4-2.7,1.4-2.7,2.8v12.3c0,1.3,1.6,3,2.9,2.7l17-3.3c1.6-0.4,2.7-1.8,2.9-3.4v-12.4
	C361.6,137.8,360.3,137,358.8,137.2C358.9,137.2,358.9,137.2,358.8,137.2L358.8,137.2z M382.6,137.8c0.5,0,0.9,0,1.3,0.4
	c0.3,0.3,0.4,0.5,0.4,0.9v2.1c0,0.6-0.2,1.2-0.6,1.6c-0.4,0.4-1,0.7-1.6,0.7l-6,0.5l-6,0.5v-5.6L382.6,137.8L382.6,137.8z
	 M355.9,140.7c1.6-0.2,2.1,0.7,2.1,1.8v7.9c0.1,1-0.6,1.9-1.6,2.2l-12.1,2.3c-1.2,0.3-1.9-0.6-1.9-1.7v-7.8c0-1.6,0.7-2.3,2.6-2.7
	C344.9,142.7,355.9,140.7,355.9,140.7z M550.4,141.4h-9.7v29.2h3.6v-13.1h5.6l5.7,13.1h3.9l-6-13.6c1.8-0.4,3.6-1.3,4.8-2.7
	c1.1-1.3,1.8-2.9,1.8-4.7c0-1-0.2-2-0.4-2.9c-0.3-1-0.8-1.9-1.5-2.7c-0.8-0.9-1.8-1.5-3-2C553.7,141.6,552.1,141.4,550.4,141.4z
	 M472.1,142.3l-0.2,10.8l-0.2,7.4l10,3c3.2,1.1,6.8,2.2,10.4,3.5l0.4,0.1l1.2,0.4c0.2-1.3,0.2-2.3,0.2-3.6l-1-0.4h-0.2l-0.2-0.1
	c-1.8-0.7-3.9-1.3-5.8-2l-6.1-2l-1.3-0.4l-1.4-0.4l-1.5-0.4l-0.8-0.3v-1.8l0.1-1.8l2,0.5l7.4,2.2l7,2.4l0.7,0.2l1.2,0.4v-3.8
	l-1.1-0.4l-0.5-0.1c-4.3-1.6-8.6-3-13-4.2l-1-0.3l-1.1-0.3l-0.5-0.2l-0.9-0.3v-3.7l1.3,0.4l1.6,0.4l1.4,0.4h0.1
	c3.9,1.1,7.8,2.3,11.6,3.7l0.9,0.4l1.3,0.5v-3.3l-0.9-0.4l-0.8-0.3h-0.1C485.6,146.3,478.9,144.1,472.1,142.3z M333,143h-1.2
	c-7,2.2-13.9,4.5-20.8,7.1l0.2,9.2v8.6l4.8-1.6V160l17.9-5.6c0.4-0.1,0.7-0.4,0.9-0.7c0.3-0.2,0.4-0.6,0.5-0.9
	c0-0.1,0.1-0.3,0.1-0.4l-0.2-7.3c-0.1-0.7-0.5-1.4-1.2-1.8C333.7,143.1,333.4,143,333,143z M544.3,144.6h5.4c1.6,0,3.1,0.3,4.5,1.1
	c1.3,0.9,1.9,2.4,1.8,3.9c0,0.7-0.1,1.3-0.3,2c-0.2,0.6-0.5,1.1-1,1.4c-0.6,0.5-1.4,0.8-2.2,1c-1.2,0.4-2.3,0.4-3.6,0.4h-4.8
	L544.3,144.6L544.3,144.6z M329.5,146.8h0.2c0.4,0,0.7,0.1,0.9,0.4c0.3,0.3,0.4,0.5,0.4,0.9l0.2,2.6c-0.1,0.5-0.3,0.9-0.6,1.2
	c-0.3,0.3-0.7,0.5-1.1,0.6l-13.8,4.5l-0.1-5.4c0,0,5.4-2.2,7.6-3C325.4,147.9,329.5,146.8,329.5,146.8z M401.4,157.4v49.4h-31.6
	c-0.4,0-0.2-0.2,0.2-0.5c2.2-1.7,4.8-2.8,7.6-3.3c0.3,0,0.4-0.1,0-0.5c-2.7-2.7-6.5-3.6-10-2.3c-3.1,1.1-5.6,3.4-6.7,6.5
	c0,0.3-0.2,0.4-0.4,0.4l-5.1,0.2c-0.3,0-0.4-0.4-0.4-0.6c0.4-2.2,1.8-4,3.7-5.1c1.7-1.2,3.6-1.8,5.6-2h0.1c0.2-0.1,0.2-0.4,0.1-0.6
	c-0.3-0.4-0.7-0.7-1.2-1c-1.6-0.9-3.5-1.2-5.4-0.9c-5.4,0.6-9.7,4.9-10.1,10.4c-0.1,0.6,0,0.8-0.5,1c-1.3,0.4-3.5,0.7-4.7,0.9
	c-0.2,0.1-0.5-0.4-0.4-0.6c0.4-2.1,1.3-3.9,2.6-5.6c0.9-1.3,2.2-2.3,3.6-3.1c0.4-0.1,0.5-0.4,0.4-0.6c-2.7-2.4-8.3,0.1-10.6,2.6
	c-2.1,2.7-3.1,6.3-2.9,9.7v0.5l-4.3,1.5l-0.2-0.4c-0.4-2.6,0.2-5.1,1.6-7.3c0.6-1.1,1.5-2,2.6-2.7V203c-1.3-1.6-6.1-0.5-7.6,0.9
	c-3.4,3.4-3.1,6.6-3.3,11.8c0,0.3-0.4,1.2-0.6,1.3c-0.6,0.4-1.3,0.7-2,0.8h-0.3l-0.4-0.9c-1.2-2-3.7-2.7-5.7-1.5
	c-0.2,0-0.3,0.2-0.4,0.3c-1.6,1.4-1.8,3.8-0.4,5.4c0.2,0.2,0.3,0.4,0,0.4c-2.4,0.7-3.7,3.2-3,5.6c0,0.1,0,0.1,0.1,0.2
	c0.5,1.3,1.8,2.2,3.2,2.2c1.4,0,2.8-0.4,3.9-1.2c0.2-0.2,0.4-0.1,0.6,0c1.2,2,3.8,2.6,5.6,1.4c1.8-1.2,2.5-3,1.3-6
	c-0.1-0.2,0.2-0.4,0.4-0.6c10.2-5.9,21.8-9.1,33.6-9.4c1.7,0.2,3.3,0.5,4.9,1.2h0.2V225l-0.3,0.3c-2.2,1.3-3.9,3.4-4.7,5.9
	c0,0.2,0,0.2-0.4,0.2l-6.3,0.7c-0.2,0-0.4-0.3-0.4-0.4c1.5-3.9,4.2-7.4,7.8-9.7c0.1-0.2,0.1-0.5,0-0.7c-0.5-0.5-1.1-0.9-1.8-1.1
	c-3.6-0.3-7.2,1.2-9.5,3.9c-2.2,2.7-3.3,5.9-3.3,9.3c0,0.3,0,0.6-0.3,0.7l-4.1,1.2c-0.2,0-0.4-0.2-0.4-0.4c-0.7-4.4,1.4-8.8,5.2-11
	c0.5-0.4-0.4-1.1-1.1-1.1c-4.1-0.2-8,2-9.9,5.6c-0.9,2.7-1,5.7-0.3,8.5c0,0.3,0.2,0.7,0,0.7l-3.6,1.2c-0.2,0.1-0.4,0-0.4-0.4
	c-0.5-1.7-0.6-3.5-0.2-5.2c0.4-2,1.4-3.8,2.9-5.2v-0.4c-1.3-0.6-2.8-0.7-4.1-0.3c-2.2,0.6-4,2-5,4c-1.8,3.2-1.3,6.3,0.5,10.8
	c0,0.3,0.2,0.6,0,0.8L324,244c-0.1,0.1-0.3,0-0.4-0.2c-0.6-0.9-1.3-2.2-2.2-2.6c-1.5-0.7-3.2-0.6-4.6,0.4c-1.3,1.2-1.8,3-1.3,4.7
	l1,1.6c0.1,0.1,0,0.4-0.1,0.4c-0.6,0.5-1.5,0.9-2.1,1.5c-1.1,1.5-1.1,3.5,0,5c1,1.6,3,2.2,4.8,1.3c0.9-0.4,1.7-0.8,2.5-1.3
	c0.3-0.2,0.4-0.5,0.7-0.3c0.6,0.7,1.4,1.3,2.4,1.6c1.3,0.4,2.7,0.2,3.8-0.6c1.3-0.7,2.1-2.1,1.8-3.6c-0.3-1-0.9-2-1.5-2.9
	c-0.4-0.4-0.4-0.4,0-0.6c5.6-3.2,11.7-5.8,17.8-7.7c5.9-1.8,12-2.6,18.1-2.2h0.4v20.9h-55.6l-1.5-83.8l0.2-0.1
	c23.7-9.6,48.8-15.4,74.3-17.1C389,157.8,395,157.5,401.4,157.4z M369.2,166.2c-2.9-0.2-5.7,0.7-8.2,2.4c-3,2.1-4.9,8.2-5.4,10.5
	c0,0.2-0.1,0.4-0.4,0.4c-2.5,0.3-4.9,0.7-7.4,1.3c0.2-2.4,1.2-4.6,2.7-6.3c1.7-1.6,3.5-3,5.4-4.3c0.1-0.1,0-0.4-0.2-0.5
	c-2.7-1.1-5.8-1.1-8.5,0.1c-3.9,1.7-6.5,5.2-7.2,9.3c-0.3,1.4-0.4,3-0.4,4.5l-0.4,0.2l-7.6,2.5l-0.4-0.1c-0.1-2.5,0.5-4.9,1.8-7.1
	c1.3-2.1,3.7-3.2,5.4-5c0.2-0.1,0.4-0.4,0.2-0.5c-4.4-1.8-8.5,0-12,4c-2.4,3.6-3.1,7.9-2.2,12.1c0.1,0.4,0,0.7-0.2,0.9l-2.4,0.9
	c-0.2,0-0.4,0-0.4-0.2c-1.1-3.2-4.8-2.6-6.5-1.6c-1.8,1.1-2.5,3.4-1.4,5.2c0,0.3,0,0.4-0.2,0.5c-2.3,1.2-3.3,3.9-2.2,6.3
	c0.9,1.6,2.8,2.2,4.5,1.5l2.7-1.3h0.3c0,0,0,0.2,0.2,0.2c1.4,1.8,4,2.2,5.9,0.6c1.2-0.9,1.7-1,2.2-2.6c0.2-1.2-0.2-2.3-0.9-3.2
	c-0.2,0,0-0.4,0-0.4c14-7.2,29.3-11.1,45-11.5c5.6,0.2,11.1,2.2,15.4,5.9c0.2,0.2,0.4,0.4,0.7,0.4c0.3-0.1,0.4-0.4,0.5-0.6
	c0.8-2.6-0.1-5.5-2.2-7.3c-1.8-1.8-4-3.1-6.5-3.7c-0.2,0-0.2-0.4-0.1-0.4c0.9-1,2.2-1.8,3.6-2.3c2.1-0.4,4.2-0.5,6.5-0.5
	c0.1,0,0.4-0.2,0.4-0.4c-0.9-2.4-3.1-4.1-5.6-4.2c-2.5-0.3-5.1,0.1-7.4,1.1c-2.4,1.3-4.3,3.4-5.4,5.9l-0.3,0.2h-6.5
	c-0.1,0-0.3,0-0.3-0.2c0.3-2.2,1.2-4,2.7-5.6c2.2-1.8,4.7-3.3,7.3-4.1c0.3-0.1,0.4-0.4,0.4-0.6c-0.6-0.8-1.3-1.4-2.2-1.8
	C371.3,166.4,370.2,166.2,369.2,166.2L369.2,166.2z M499.6,175.6v4.8h-0.8h0.8V175.6z M404.7,183.4h94.7c0,7.4-0.2,15.2-0.4,23.5
	h-94.2L404.7,183.4L404.7,183.4z M368.2,210.1h71.4c0.2,0,0.2,0.1,0.2,0.2v55c0,2.9-0.5,5.6-1.5,8.2c-2.9,7.4-8.4,13.4-15.4,17
	c-5.6,3.3-12.1,5.2-18.6,5.3c-9-0.1-17.5-3.4-24.2-9.2c-7.3-5.6-11.6-14.1-11.8-23.3v-52.9C368.1,210.4,368.2,210.1,368.2,210.1z
	 M443.1,210.3v0.4V210.3z M498.9,210.3l-0.4,20.6h-0.8h0.9C498.7,230.9,498.9,210.3,498.9,210.3z M416.7,214.8
	c-0.4,0.1-0.9,0.4-1,0.9l-2.5,7.7l0.1,0.6l0.5,0.3c0.4,0,0.6,0,0.7-0.4l0.4-1.3h3.6l0.4,1.3c0,0.3,0.4,0.4,0.6,0.4
	c0.2,0,0.5-0.1,0.6-0.3c0.1-0.2,0.1-0.5,0-0.7l-2.7-7.7C417.4,215.2,417,214.9,416.7,214.8L416.7,214.8z M394.3,215
	c-0.4,0-0.7,0.3-0.7,0.6s0.3,0.6,0.7,0.6h1.2v7.4c0,0.4,0.4,0.6,0.7,0.6s0.6-0.3,0.6-0.6v-7.4h1.3c0.3,0,0.6-0.3,0.6-0.6
	s-0.3-0.6-0.6-0.6C398.1,215,394.3,215,394.3,215z M400.2,215c-0.3,0-0.6,0.3-0.6,0.6s0.3,0.6,0.6,0.6h1.3v7.4
	c0,0.4,0.4,0.6,0.7,0.6s0.6-0.3,0.6-0.6v-7.4h1.3c0.3,0,0.6-0.3,0.6-0.6s-0.3-0.6-0.6-0.6H400.2z M408.8,215c-1-0.1-1.9,0.5-2.3,1.3
	c-0.6,1-0.9,2.1-0.9,3.2c0,1.2,0.3,2.2,0.8,3.3c0.4,0.9,1.3,1.5,2.4,1.5c0.6,0,1.1-0.2,1.6-0.4c0.8-0.6,1.3-1.5,1.5-2.5
	c0.1-0.5,0.2-1.1,0.2-1.6c0-0.4-0.2-0.9-0.9-0.9h-2c-0.5,0-0.6,0.2-0.6,0.4c0,0.4,0.2,0.6,0.5,0.6h1.5v0.4c0.1,1.2-0.7,2.3-1.8,2.6
	c-0.7,0-1.4-0.5-1.6-1.2c-0.4-0.7-0.5-1.5-0.5-2.3c0-0.9,0.3-1.7,0.6-2.4c0.2-0.6,0.8-1,1.4-1.1c0.6,0,1.1,0.4,1.4,0.9
	c0.1,0.3,0.4,0.4,0.7,0.3c0.3,0,0.4-0.4,0.4-0.6C411,215.5,409.9,214.9,408.8,215z M429.6,215c-0.4,0-0.7,0.3-0.7,0.6
	s0.3,0.6,0.7,0.6h1.3v7.4c0,0.4,0.3,0.6,0.6,0.6s0.6-0.3,0.6-0.6v-7.4h1.3c0.4,0,0.6-0.3,0.6-0.6s-0.3-0.6-0.6-0.6H429.6z
	 M376.7,215c-0.7-0.1-1.5,0.1-2.1,0.5c-0.6,0.4-1,1.1-1,1.8c-0.1,0.7,0.2,1.5,0.7,2.1c0.4,0.5,1.1,0.8,1.8,0.8c0.9,0,1.6,0.3,2.1,1
	c0.2,0.4,0,0.9-0.3,1.3c-0.4,0.4-1,0.6-1.6,0.5c-0.6,0-1.2-0.3-1.6-0.7c-0.2-0.3-0.6-0.4-0.9-0.3c-0.4,0.2-0.4,0.7-0.4,0.9
	c0.6,0.9,1.6,1.5,2.8,1.4c1,0.1,2-0.2,2.7-0.9c0.5-0.5,0.7-1.2,0.7-1.9c0.1-0.7-0.3-1.5-0.9-1.9c-0.9-0.5-1.9-0.8-2.9-0.9
	c-0.6-0.1-1-0.7-0.9-1.3c0.2-0.8,0.9-1.2,1.5-1.1c0.6,0,1.3,0.2,1.7,0.7c0.4,0.4,1,0,1-0.4S378.5,215,376.7,215z M380.9,215
	c-0.3,0-0.6,0.3-0.6,0.6c0,0,0,0.1,0,0.1c0,0.3,0.3,0.6,0.6,0.6h1.3v7.3c0,0.4,0.3,0.7,0.6,0.7c0.4,0,0.7-0.4,0.7-0.7v-7.3h1.3
	c0.3,0,0.6-0.3,0.6-0.6c0-0.3-0.2-0.7-0.5-0.7c0,0-0.1,0-0.1,0H380.9z M422.4,215l-0.5,0.3c-0.1,0.1-0.2,0.3-0.2,0.4v7.8
	c0,0.4,0.2,0.6,0.5,0.7h0.1c0.4,0,0.7-0.3,0.7-0.6v-2.5h1.3l2,2.7c0.2,0.3,0.4,0.4,0.6,0.4c0.4,0,0.6-0.3,0.6-0.5
	c0-0.2-0.1-0.5-0.3-0.6l-1.6-2.2h0.2c0.5-0.2,0.9-0.5,1.3-0.9c0.6-0.5,0.9-1.3,0.8-2.1c0-0.9-0.5-1.7-1.2-2.2
	c-0.7-0.4-1.4-0.6-2.2-0.6C424.4,215,422.4,215,422.4,215z M387.1,215c-0.3,0-0.6,0.3-0.6,0.6c0,0,0,0.1,0,0.1v4.7
	c0,0.9,0.2,2,0.6,2.8c0.6,0.8,1.5,1.2,2.5,1.1c0.9,0.2,1.8-0.3,2.4-1.1c0.4-0.9,0.7-1.8,0.6-2.8v-4.7c0-0.3-0.3-0.6-0.6-0.6
	c0,0-0.1,0-0.1,0c-0.3,0-0.6,0.3-0.6,0.6v5c0,0.6-0.1,1.2-0.4,1.7c-0.3,0.4-0.8,0.6-1.3,0.5c-0.5,0.1-1-0.1-1.3-0.5
	c-0.3-0.5-0.5-1.1-0.4-1.7v-5C387.8,215.3,387.5,215,387.1,215C387.1,215,387.1,215,387.1,215L387.1,215z M422.9,216.3h1.7
	c0.5,0,1,0.1,1.3,0.4c0.4,0.4,0.5,0.7,0.5,1.2c0,1.1-0.9,1.9-2,1.9H423L422.9,216.3L422.9,216.3z M416.6,216.4l1.6,5h-3L416.6,216.4
	z M404.1,227.3c-0.9,0.3-1.8,0.5-2.5,1c-0.6,0.5-1.1,1.1-1.5,1.8c-0.1,0.1-0.2,0.2-0.4,0.3l-0.5,0.1l-1.9,0.9
	c-0.6,0.3-1.2,0.7-1.8,0.9c-0.5,0.2-0.9,0.3-1.4,0.4c-1.1-0.2-2.3-0.1-2.7,1.1c0,0.3,0.1,0.5,0.4,0.6c0.2,0.1,0.3,0.2,0.5,0.3
	l0.6,0.3c0.2,0,0.3,0,0.4,0.2l0.1,0.2v0.1c0,0.2-0.3,0.4-0.4,0.4c-0.6,0.1-1.1,0-1.6-0.3h-0.1c-0.2-0.2-0.5-0.2-0.7,0
	c-1.1,0.9-2.2,1.8-3.4,2.5l-0.4,0.4l-0.1,0.2v0.3c0,0.3-0.3,0.4-0.5,0.4c-0.2,0.1-0.4,0.3-0.4,0.5v0.5c0.1,0.4,0.4,0.6,0.9,0.6h0.2
	l0.9-0.4h0.4l0.1,0.1v0.4c-0.1,0.2-0.2,0.4-0.4,0.5c-0.2,0.3-0.3,0.5,0,0.7c0.4,0.4,1,0.3,1.3-0.1c0.2-0.2,0.3-0.5,0.4-0.7
	c0.1-0.3,0.3-0.5,0.6-0.5c0.5-0.2,1.1-0.3,1.6-0.4c0.4,0,0.8,0,1.1,0.3l0.3,0.3v0.2c-0.1,0.4-0.2,0.7-0.4,1.1l-0.3,0.9l-0.3,0.8
	l-0.4,0.4l-1.6,1.3c-0.9,0.8-1.5,1.6-2.2,2.7c-0.2,0.3-0.3,0.6-0.4,0.9c-0.2,0.9-0.4,2-1.3,1.3c-0.9-0.4-1.8-1.1-2.7-1.8
	c-0.3-0.2-0.7-0.5-0.9-0.9c-0.9-1.3-2,0-2.5,0.9c-1,1.7-2.2,3.3-3.5,4.8c-0.1,0.4-0.3,0.7-0.5,1c-0.3,0.4-0.5,0.9-0.4,1.4
	c0,0.9-0.3,1.7-0.7,2.4c-0.4,0.4-0.6,0.9-0.6,1.4v1.4c0,0.4,0.2,0.6,0.5,0.6h0.3c0.7-0.3,1.4-0.7,2.1-1.3l0.3-0.2
	c0.2-0.2,0.2-0.5,0.1-0.7l-0.1-0.2l-0.2-0.2c-0.1-0.1-0.3-0.2-0.4-0.4v-0.6l0.2-0.6c0-0.2,0.1-0.5,0.3-0.6l1.1-0.9
	c0.4-0.4,0.6-1.1,0.4-1.6V254c0-0.3,0.1-0.4,0.3-0.7l0.7-0.9c0.3-0.5,0.8-0.9,1.3-1.1c0.8,0,1.5,0.2,2.1,0.7
	c0.5,0.7,0.9,1.6,1.2,2.5c0.2,0.8,0.5,1.5,0.9,2.2c0.4,0.4,0.9,0.7,1.4,0.4l0.3-0.2l0.2-0.1c0.2,0,0.4,0,0.5,0.3l0.9,0.9
	c0.4,0.3,0.1,0.5-0.3,0.5h-1.4c-1.5,0.5-3.2,0.8-4.8,0.8h-0.3c-0.3,0-0.4,0.2-0.4,0.4l-0.1,0.2l-0.2,0.4c-0.1,0.4-0.1,0.8,0,1.2
	c0.6,2.2,0.9,4.5,0.4,6.8c-0.2,0.9,0,1.8,0.6,2.4l0.7,0.4l0.4,0.2c0.2,0.3,0.3,0.5,0.3,0.9c0,0.4,0.3,0.9,0.5,1.2
	c0.4,0.5,0.9,0.9,1.5,1.3h0.2c0.4,0.2,0.7,0,0.9-0.3c0.3-0.7,0.5-1.5,0.4-2.3c0-0.4-0.3-0.7-0.7-0.8l-0.4,0.1l-0.3,0.1h-0.4
	c-0.2-0.1-0.3-0.3-0.4-0.5c-0.2-0.5-0.2-1-0.1-1.5v-0.3l0.1-0.7c0-0.2,0-0.4-0.2-0.6c-0.2-0.4-0.2-0.5-0.5-0.6
	c-0.2,0-0.3-0.1-0.4-0.3c-0.2-0.2-0.2-0.3-0.1-0.4c0.2-1.1,0.2-2.2,0.1-3.3c0-0.4,0-0.7,0.2-0.9c0.8-0.7,2.1-0.2,2.8,0.1
	c1.1,0.4,2.1,0.6,3.1,0.8c1.8,0.2,3.6-0.3,5-1.3c0.1-0.1,0.1-0.2,0.3-0.1l1.5,1.1c1.3,0.9,2.7,1.5,4.1,2c2,0.2,3.9,0.2,6-0.1
	c0.4,0,1,0.1,1.4,0.3l0.2,0.3c0,0.8-0.4,1.4-0.4,2.2c0,0.4,0.2,0.8,0.4,1.2l0.4,1.1l0.3,0.4c1.1,1.4,1.2,3.5,0,4.9
	c-0.7,0.7-1.5,1.4-2.4,2c-0.8,0.6-1.8,1-2.8,1.1c-0.7,0-1.3,0.3-1.8,0.8c-0.6,0.6-1.2,1.1-1.9,1.4c-0.3,0.1-0.6,0.4-0.6,0.7
	c-0.4,0.8-0.6,1.6-0.8,2.5c-0.1,0.4,0.3,0.6,0.7,0.6c0.7-0.1,1.4-0.4,2.2-0.6c0.4,0,0.6-0.5,0.5-0.9l-0.1-0.1l-0.3-0.6v-0.5
	c0.2-0.1,0.3-0.3,0.5-0.4c0.2-0.2,0.5-0.2,0.7-0.2h0.4c1,0.4,2.2,0,2.6-1c0,0,0,0,0,0c0.2-0.3,0.4-0.6,0.6-0.8
	c1.9-1.2,3.9-2.2,6.1-3c0.2,0,0.4-0.2,0.4-0.4v-3.1c0-0.5,0.2-1.4,0.9-1.4c0.3,0,0.5,0.2,0.6,0.4c0.7,0.9,1.6,1.5,2.7,1.9l0.9,0.4
	c0.8,0.4,1.3,1.1,1.4,2c0.1,0.5,0,0.9-0.3,1.3l-2.1,3c-0.3,0.5-0.7,1-1.3,1.3c-1.4,0.9-2.6,2-3.8,3.2l-1,3.1
	c-0.2,0.6,0.2,0.8,0.7,0.6c0.9-0.2,1.6-0.5,2.3-0.9l0.4-0.3c0.1-0.1,0.1-0.3,0.1-0.4c0-0.3-0.2-0.6-0.4-0.8c-0.2-0.3-0.2-0.7,0-1
	c0.1-0.2,0.3-0.3,0.4-0.4l1.8-0.5c0.7-0.1,1.4-0.4,2-0.9c0.1-0.2,0.2-0.3,0.3-0.5v-0.2c0.7-2.3,2.3-4.5,4.5-5.6
	c0.3-0.1,0.4-0.4,0.4-0.7l-0.1-0.9l-1.6-2.5c-0.5-0.7-0.8-1.4-0.9-2.2c0-0.9,0.2-1.7,0.6-2.4l0.4-0.6c0.3-0.6,0.9-0.9,1.3-1.5
	c0.4-0.5,0.9-1.1,1.2-1.8l0.9-2.4c0.2-0.7-0.1-1.4-0.1-2.1c0-0.3,0.2-0.4,0.3-0.7c0.3-0.4,0.7-0.7,1.2-0.9c0.5-0.1,1-0.1,1.4,0.1
	l2.3,0.9c0.4,0,0.9,0,1.3-0.2c0.4-0.1,0.9-0.4,1.3-0.7v-0.4h-1.1c-0.4-0.1-0.7-0.3-0.9-0.6c-0.2-0.3-0.4-0.6-0.4-0.9l0.3-0.5
	c0.6-0.4,1.1-0.9,1.4-1.4c0.3-0.6,0.4-1.2,0.4-1.8h-0.3c-0.4,0.4-0.5,0.9-1,1.2c-0.4,0.3-0.9,0.4-1.3,0.4c-0.3,0-0.6-0.1-0.9-0.4
	c-0.2-0.3-0.3-0.6-0.4-0.9c-0.1-0.4,0.4-0.5,0.6-0.6c0.6,0,1.2-0.2,1.8-0.4c0.4-0.2,0.6-0.5,0.8-0.9c0.1-0.3,0.2-0.6,0.2-0.9
	c0-0.2,0-0.3-0.1-0.2c-0.4,0-0.6,0.3-0.9,0.4c-0.5,0.2-1.1,0.1-1.6-0.1c-0.5-0.4-0.9-0.9-1.2-1.4V248c0.6,0,1.1-0.6,1.4-1.3l0.2-0.4
	l0.4-0.5c0.1-0.4,0.1-0.8,0.1-1.2c0-0.3-0.2-0.7-0.4-0.9H430c-0.2,0.4,0,0.9-0.4,1.3c-0.3,0.4-0.6,0.8-1,1.1
	c-0.3,0.2-0.5,0.4-0.7,0.4c-0.5-0.2-0.8-0.6-0.9-1.1c0-0.4,0.2-1,0.4-1.4l1.7-2.7l1.4-1.6c0.3-0.4,0.4-1.3,0.1-1.5
	c-0.4-0.1-0.6,0.8-0.9,1c-1.4,0.5-2.7,1.2-3.9,2.1c-0.6,0.7-0.9,1.5-1.2,2.4c-0.2,0.5-0.1,1.2-0.3,1.7c0,0.2-0.4,0.4-0.6,0.3
	c-0.4-0.4-0.7-1-0.9-1.5c-0.1-0.4-0.1-0.8,0-1.3c0.1-0.2,0-0.3-0.1-0.2c-0.6,0.3-0.9,0.8-1.2,1.3c-0.2,0.8-0.2,1.6,0.2,2.3
	c0.6,1.2,1.3,2.2,2.2,3.2c0.6,0.9,1.3,2,1.8,2.9c0.5,0.7,0.7,1.7,0.6,2.7c-0.3,0.9-0.7,1.8-1.4,2.4c0,0-0.3,0.2-0.4,0.1
	c-0.7-0.7-1.5-1.3-2.3-1.9c-1-0.6-2-1.1-3.1-1.3c-1.4-0.2-2.9-0.2-4.3,0c-1.5,0-3,0.3-4.5,0.2c-1.2,0.1-2.4,0-3.6-0.4
	c-0.8-0.4-1.5-1-2-1.8c-0.4-0.8-0.6-1.8-0.4-2.7c0-0.8,0.3-1.5,0.6-2.2c0.3-0.6,0.8-1.1,1.3-1.4c0.7-0.4,1.5-0.5,2.2-0.3l0.9,0.6
	c0.3,0.3,0.6,0.6,0.9,0.9l0.3-0.1c0.1-1-0.1-2-0.4-3c-0.3-0.7-0.8-1.4-1.3-2.1c0-0.2,0.4-0.1,0.5-0.2c0.8,0,1.6,0.2,2.2,0.7
	c0.4,0.3,0.9,0.6,1.2,1.2l0.1-0.1c0.1-1.2-0.4-2.4-1.2-3.3c-0.3-0.5-0.8-1-1.3-1.3c-0.4-0.1,0.2-0.4,0.5-0.4c0.6-0.1,1.3,0,1.8,0.3
	l0.6,0.4l0.4,0.4c0.1,0,0.3-0.2,0.2-0.3c-0.1-0.4-0.2-0.7-0.4-1c-0.9-0.9-1.9-1.8-3-2.6l-0.4-0.3c-0.3-0.4-0.6-0.9-0.7-1.3l-0.4-0.6
	V233c0.4-0.6,0.6-0.7,1.3-1c0.5-0.2,1-0.3,1.5-0.4l0.5,0.2c0,0,0.1-0.3-0.1-0.4c-0.6-0.4-1.4-0.6-2.2-0.6c-1-0.2-2-0.1-3,0.2
	c-0.7,0.4-1.5,0.6-2.2,0.6c-0.5,0-1.1,0-1.5-0.3c-0.3-0.2-0.6-0.5-0.6-0.9c0-0.5,0.1-1.2,0.4-1.7c0.2-0.4,0.6-0.7,1-0.9
	c0.4,0,0.5-0.2,0.4-0.4C404.6,227.1,404.3,227.2,404.1,227.3L404.1,227.3z M400.2,233.2c0.5,0,0.9,0.2,1.3,0.5c1.2,1,1.8,2.4,2,3.9
	c0.3,2,0.4,4.1,0,6.1c0,0.7-0.3,1.3-0.9,1.6c-0.3,0.1-0.6,0.2-0.9,0.2c-0.3,0-0.4-0.5-0.4-1.3v-5.5c-0.2-1.2-0.5-2.4-1.1-3.6
	c0-0.3-0.2-0.4-0.4-0.6l-0.4-0.5c-0.2-0.2-0.5-0.3-0.7-0.5l0.1-0.3C399.3,233.1,399.8,233,400.2,233.2L400.2,233.2z M443.1,234.2
	h55.4l-0.5,24.2h-54.9C443.1,258.4,443.1,234.2,443.1,234.2z M443.2,261.6H498c-0.5,10.6-2.5,21.1-6,31.1
	c-4.2,11.8-9.8,22.9-16.7,33.4c-10,15-23,27.8-38.2,37.7c-6.7,4.1-13.7,7.6-21,10.8c-2.3,1-4.5,2-6.3,2.6c-2.1,0.6-3.9,1.3-5.1,1.6
	v-79.3c1.2,0,2.2,0,3.4-0.2l0.4,1.1c0.5,0.9,1.3,1.5,2.3,1.8c1.3,0.2,2.5-0.3,3.3-1.2c1.2,0.9,2.7,1.3,4.1,0.7
	c1.1-0.3,1.9-1.3,1.9-2.4c0.1-0.8,0-1.5-0.4-2.2l-0.4-0.6c2.9-1.3,5.5-2.7,8-4.5h0.3c3.9-1,20-6.8,29.9-6.9
	c6.1-0.1,12.1,1.3,17.4,4.2c2.9,1.7,5.5,3.8,7.7,6.4l0.4-0.3c0.6-1.8,1-3.6,0.9-5.6c-0.3-3-3.3-5.2-4.2-6.1c0,0,0-0.2,0.3-0.4
	c0.3-0.3,0.7-0.6,1.1-0.9c1.8-1.3,3.9-2.2,6.1-2.2c0.3,0,0.2-0.4,0.1-0.9c-0.6-2.6-4.5-4.3-8.4-3.8c-2.7,0.5-5,2.2-6.5,4.5
	c-0.1,0.2-0.5,0.4-0.6,0.2c-1.3-0.5-2.6-0.9-3.9-1.2c-0.4-0.1-0.2-0.5-0.2-0.5c0.8-1.4,1.8-2.7,3.2-3.6c1.5-1.2,3.4-2.1,5.4-2.4
	c0.2,0,0.2-0.3,0-0.4c-0.7-1.6-2.2-2.8-3.9-3.2c-2.8-0.9-6-0.4-8.3,1.4c-2.2,1.9-3.9,4.5-4.8,7.2c-0.1,0.3-0.2,0.4-0.4,0.4
	c-1.1-0.3-3.7-0.1-3.9-0.3c-0.2,0-0.2-0.4-0.1-0.5c0.4-1.5,1.3-2.9,2.3-4c1.1-1.3,2.4-2.4,3.9-3l0.2-0.2c0.2-0.3,0.2-0.7-0.1-0.9
	c0,0,0,0,0,0c-4.5-2.2-9.9-1-13.1,2.9c-1.5,2.2-2.6,4.8-3.2,7.4c0,0.1-0.2,0.4-0.4,0.4l-5.4,1.3l-0.9,0.2L438,281
	c3.2-5.3,5-11.3,5.2-17.6C443.2,263.5,443.2,261.6,443.2,261.6z M369,270.3c0.3,1.2,0.9,2.3,1.3,3.5L369,270.3z M375.1,283
	c7.1,8.9,17.7,14.1,29,14.3c8.7-0.1,17.1-3.3,23.7-9c-6.6,5.6-15,8.7-23.7,8.8C392.9,297,382.2,291.8,375.1,283z M373.2,285.9h1.1
	H373.2z M314.2,288.6h62.8l1.3,1.1c6.5,5.6,14.7,9,23.2,9.7v12.9h-77.3C320.1,304.6,316.8,296.7,314.2,288.6L314.2,288.6z
	 M445.2,293.7c-1.6,0.2-3.1,0.7-4.5,1.6c-1.8,1.1-3.3,2.6-4.2,4.5c-1.1,2.7-1.6,5.4-1.8,8.2l-0.4,0.4l-3.6,0.9c0,0-0.2,0-0.3-0.2
	c-0.4-2.7,0.2-5.4,1.6-7.7c0.6-1.1,1.4-2.1,2.3-2.9c0.2-0.1,0.3-0.4,0.2-0.5l-0.4-0.2c-2.3-0.4-4.8,0-6.9,1.3
	c-2.7,1.4-4.5,4.1-4.8,7.2c-0.3,2.1-0.1,4.2,0.4,6.3c0,0.1,0,0.3-0.2,0.4l-3.9,1.9h-0.2c-0.4-1.6-1.4-3-2.9-3.9
	c-1.6-0.7-3.3-0.6-4.8,0.2c-1,0.6-1.8,1.4-2.2,2.4c-0.8,1.8-0.2,3.8,1.3,4.8c0,0.1,0.2,0.3,0,0.4c-1,0.4-1,0.6-1.8,1.7
	c-0.7,1.6-0.5,3.5,0.6,4.8c1.5,2.3,4.6,2.9,6.8,1.4c0.2-0.1,0.4-0.3,0.6-0.5c0,0,0.2,0,0.3,0.2c0.4,0.6,0.9,1.2,1.5,1.6
	c1.5,0.9,3.4,0.9,4.8,0c1.6-0.9,2.5-2.7,2.2-4.5c0-1-0.4-2-1.2-2.7c-0.1-0.2,0-0.3,0.4-0.5c6.5-3.7,13.6-6.2,21.1-7.2
	c3.8-0.5,7.7-0.4,11.5,0.3c2.4,0.5,4.8,1.7,6.7,3.3c1.6,1.3,3,2.7,4.4,4.3c0.4,0,0.9,0,1.3-0.3c0.8-1.8,0.9-3.8,0.1-5.6
	c-0.9-2.4-2.3-4.5-4.1-6.3v-0.2c0-0.4,0.2-0.5,0.5-0.9c1.7-1.5,3.8-2.7,6-3.1c0.3,0,0.4-0.3,0.3-0.5c-1.6-3.2-5.4-4.6-8.7-3.3
	c-2.1,0.9-3.9,2.5-4.8,4.5c-0.1,0.2-0.3,0.5-0.4,0.4l-3.6-0.4c-0.4,0-0.3-0.4-0.2-0.4c0.4-1.3,1.1-2.5,2.1-3.4
	c1.3-1.5,3-2.7,4.8-3.4c0.2,0,0.2-0.2,0.2-0.3c-1.2-1.5-3.1-2.4-5-2.5c-2.4-0.1-4.8,0.8-6.5,2.5c-2.1,2.2-3.3,5-3.6,8
	c-0.2,0.2-0.3,0.4-0.4,0.4c-0.9,0.2-2,0.2-3,0.3c-0.2,0-0.2-0.3-0.2-0.4c0-1.5,0.4-3,1.1-4.3c1.3-2.6,3.4-4.8,5.9-6.3
	c0.4-0.3,0.4-0.9,0.3-0.9C448.5,293.8,446.8,293.5,445.2,293.7L445.2,293.7z M401.3,315.2L401.3,315.2l0.1,23.5L401.3,315.2z
	 M433.4,327.7c-1,0-2,0.3-2.8,0.9c-2.4,1.2-4.2,3.3-5.1,5.9c-0.4,2-0.4,4.1,0.2,6.1v0.3l-2.3,1.1h-0.3c-1.4-2.6-1.1-5.7,0.9-7.9
	c0.2-0.2,0.3-0.4-0.1-0.5c-2.1-0.3-4.2,0.5-5.6,2.1c-1.7,2-2.2,4.7-1.3,7.2c0.2,0.9,0.5,1.8,1.1,2.7c0,0,0.4,0.3,0.1,0.4l-1.5,1.3
	h-0.3c-0.6-1.3-1.8-2.2-3.1-2.6c-1.2-0.3-2.4,0.1-3.3,0.9c-1.5,1.5-1.6,3.9-0.1,5.5c0,0,0.1,0.1,0.1,0.1c0.4,0.4,0.9,0.7,1.5,0.9
	c0.1,0,0.2,0.2,0.1,0.3c-0.9,0.6-1.6,1.3-2.1,2.2c-0.6,1.5-0.3,3.2,0.9,4.4c0.9,0.7,2,1.1,3.1,0.9c1.7-0.5,3-1.8,3.9-3.3
	c0,0,0.2-0.2,0.3,0c0.7,0.9,1.7,1.6,2.9,2.1s2.5,0.2,3.4-0.7c1.3-0.9,1.8-2.7,1.2-4.3c-0.5-0.9-1.2-1.7-2.1-2.2
	c-0.2-0.2,0-0.4,0.2-0.6c4.3-3.5,9.5-5.8,15.1-6.6c3.7-0.5,7.5,0.1,10.9,1.8c1.3,0.7,2.5,1.7,3.6,2.8c0.1,0,0.5,0.2,0.6,0
	c1.7-1.4,1.8-4,0.4-5.7c-0.6-0.7-1.3-1.3-2.2-1.8l-0.1-0.2c1.1-2.8,3.4-5,6.4-5.7c0.3,0,0.2-0.2,0-0.5c-1.2-3-6.6-3.1-9.1-1.5
	c-1.6,1.1-2.9,2.5-3.8,4.2c0,0.2-0.1,0.4-0.3,0.4l-2.2-0.7v-0.3c1.5-3,4.2-5.2,7.4-6c0.2-0.1,0.1-0.3,0-0.4c-1.1-2.9-7-2.7-9.9-0.8
	c-2.7,1.8-4.7,4.5-5.4,7.7v0.4c-0.9,0.3-1.6,0.5-2.5,0.6c-0.1,0-0.2-0.1-0.2-0.3c-0.2-1.4,0-2.9,0.7-4.1c0.9-1.6,2.2-3.1,3.5-4.5
	c0.2-0.2,0.2-0.5,0-0.6C435.3,328.1,434.4,327.8,433.4,327.7L433.4,327.7z M344.5,341.7h56.8v36.7c-1.1-0.4-2.3-0.9-3.7-1.3
	c-1.9-0.6-3.9-1.7-6.4-2.7c-12.1-4.7-23.3-11.3-33.2-19.7C353.2,350.7,348.7,346.4,344.5,341.7z M556,426v47.2h10.4v-17.7h63.1v17.7
	H640V426h-10.4v19.2h-63.1V426H556L556,426z M166.9,426c-5.8,0-10.5,4.7-10.6,10.5v26.4c0,5.8,4.8,10.4,10.6,10.4h66.3
	c5.8,0,10.4-4.7,10.4-10.4v-26.4c0-5.6-4.5-10.3-10.2-10.4L166.9,426L166.9,426z M256.2,426v47.2h10.3v-12.5h57.9
	c5.7,0,10.4,4.8,10.4,10.5v1.9h10.5v-0.1c0-6.8-3.9-13-10.1-16c5.6-0.2,10-4.8,10-10.4v-10.2c0-5.8-4.7-10.4-10.5-10.4L256.2,426
	L256.2,426z M55.3,426.1v47.2h10.4v-12.5h68c5.8,0,10.5-4.7,10.5-10.4v-13.9c0-5.8-4.8-10.4-10.5-10.4H55.5L55.3,426.1z
	 M469.1,426.1c-5.8,0-10.6,4.7-10.6,10.4v26.4c0,5.7,4.6,10.5,10.3,10.5h75.3v-10.4h-73.8c-0.7,0-1.3-0.5-1.3-1.3v-23.8
	c0-0.9,0.8-1.4,1.7-1.4h73.4V426L469.1,426.1L469.1,426.1z M652.2,426.1v47.2h92.1v-8.8h-81.6v-10.3h81.6v-8.9h-81.6V435h81.6v-8.9
	L652.2,426.1L652.2,426.1z M367.5,426.1c-5.7,0.2-10.3,4.8-10.3,10.6v7c0,5.8,4.8,10.5,10.6,10.5h66.2c0.9,0,1.7,0.7,1.8,1.6v7.2
	c0,0.9-0.8,1.5-1.8,1.5h-75.3v8.9h77.1c5.7,0,10.4-4.8,10.4-10.5v-7.1c0-5.7-4.8-10.5-10.5-10.5h-66.3c-0.9,0.1-1.7-0.6-1.7-1.5
	c0,0,0,0,0,0v-7.2c0-0.9,0.8-1.6,1.7-1.6h75.1v-8.8L367.5,426.1L367.5,426.1z M266.6,436.4H333c1,0.1,1.8,0.9,1.8,1.8v10.4
	c0,0.9-0.7,1.7-1.6,1.8h-66.6V436.4L266.6,436.4z M65.7,436.4l66.3,0.1c0.9,0,1.8,0.9,1.8,1.8v10.3c0,0.9-0.7,1.7-1.6,1.8H65.9v-14
	H65.7z M168.6,436.5h63c0.9,0,1.8,0.8,1.8,1.8v22.9c0,1-0.7,1.7-1.7,1.8h-63.5c-0.7,0-1.3-0.6-1.3-1.3v-23.8
	C167,437,167.8,436.4,168.6,436.5L168.6,436.5z"/>
</svg>
